ISO-10303-21;
HEADER;
/* Generated by software containing ST-Developer
 * from STEP Tools, Inc. (www.steptools.com) 
 */
/* OPTION: strings as raw bytes, not using required /X/ escapes */

FILE_DESCRIPTION(
/* description */ ('Unknown'),
/* implementation_level */ '2;1');

FILE_NAME(
/* name */ 'WE-PMCI_322510',
/* time_stamp */ '2025-02-18T15:14:51+01:00',
/* author */ ('Unknown'),
/* organization */ ('Unknown'),
/* preprocessor_version */ 'ST-DEVELOPER v19.4',
/* originating_system */ 'Solid Edge',
/* authorisation */ 'Unknown');

FILE_SCHEMA (('AUTOMOTIVE_DESIGN {1 0 10303 214 3 1 1}'));
ENDSEC;

DATA;
#10=PROPERTY_DEFINITION_REPRESENTATION(#14,#12);
#11=PROPERTY_DEFINITION_REPRESENTATION(#15,#13);
#12=REPRESENTATION('',(#16),#1157);
#13=REPRESENTATION('',(#17),#1157);
#14=PROPERTY_DEFINITION('pmi validation property','',#1162);
#15=PROPERTY_DEFINITION('pmi validation property','',#1162);
#16=VALUE_REPRESENTATION_ITEM('number of annotations',COUNT_MEASURE(0.));
#17=VALUE_REPRESENTATION_ITEM('number of views',COUNT_MEASURE(0.));
#18=SHAPE_REPRESENTATION_RELATIONSHIP('','',#767,#19);
#19=ADVANCED_BREP_SHAPE_REPRESENTATION('',(#765),#1157);
#20=SPHERICAL_SURFACE('',#789,0.02);
#21=SPHERICAL_SURFACE('',#798,0.02);
#22=SPHERICAL_SURFACE('',#801,0.02);
#23=SPHERICAL_SURFACE('',#809,0.02);
#24=SPHERICAL_SURFACE('',#812,0.02);
#25=SPHERICAL_SURFACE('',#822,0.02);
#26=SPHERICAL_SURFACE('',#824,0.02);
#27=SPHERICAL_SURFACE('',#830,0.02);
#28=CYLINDRICAL_SURFACE('',#787,0.02);
#29=CYLINDRICAL_SURFACE('',#792,0.02);
#30=CYLINDRICAL_SURFACE('',#794,0.02);
#31=CYLINDRICAL_SURFACE('',#796,0.02);
#32=CYLINDRICAL_SURFACE('',#803,0.02);
#33=CYLINDRICAL_SURFACE('',#805,0.02);
#34=CYLINDRICAL_SURFACE('',#807,0.02);
#35=CYLINDRICAL_SURFACE('',#814,0.02);
#36=CYLINDRICAL_SURFACE('',#816,0.02);
#37=CYLINDRICAL_SURFACE('',#818,0.02);
#38=CYLINDRICAL_SURFACE('',#820,0.02);
#39=CYLINDRICAL_SURFACE('',#826,0.02);
#40=CYLINDRICAL_SURFACE('',#828,0.02);
#41=CYLINDRICAL_SURFACE('',#832,0.02);
#42=CYLINDRICAL_SURFACE('',#833,0.02);
#43=CYLINDRICAL_SURFACE('',#834,0.02);
#44=CIRCLE('',#774,0.02);
#45=CIRCLE('',#775,0.02);
#46=CIRCLE('',#776,0.02);
#47=CIRCLE('',#777,0.02);
#48=CIRCLE('',#781,0.02);
#49=CIRCLE('',#782,0.02);
#50=CIRCLE('',#783,0.02);
#51=CIRCLE('',#784,0.02);
#52=CIRCLE('',#788,0.02);
#53=CIRCLE('',#790,0.02);
#54=CIRCLE('',#791,0.02);
#55=CIRCLE('',#793,0.02);
#56=CIRCLE('',#795,0.02);
#57=CIRCLE('',#797,0.02);
#58=CIRCLE('',#799,0.02);
#59=CIRCLE('',#800,0.02);
#60=CIRCLE('',#802,0.02);
#61=CIRCLE('',#804,0.02);
#62=CIRCLE('',#806,0.02);
#63=CIRCLE('',#808,0.02);
#64=CIRCLE('',#810,0.02);
#65=CIRCLE('',#811,0.02);
#66=CIRCLE('',#813,0.02);
#67=CIRCLE('',#815,0.02);
#68=CIRCLE('',#817,0.02);
#69=CIRCLE('',#819,0.02);
#70=CIRCLE('',#821,0.02);
#71=CIRCLE('',#823,0.02);
#72=CIRCLE('',#825,0.02);
#73=CIRCLE('',#827,0.02);
#74=CIRCLE('',#829,0.02);
#75=CIRCLE('',#831,0.02);
#76=ORIENTED_EDGE('',*,*,#220,.F.);
#77=ORIENTED_EDGE('',*,*,#221,.T.);
#78=ORIENTED_EDGE('',*,*,#222,.T.);
#79=ORIENTED_EDGE('',*,*,#223,.T.);
#80=ORIENTED_EDGE('',*,*,#224,.T.);
#81=ORIENTED_EDGE('',*,*,#225,.T.);
#82=ORIENTED_EDGE('',*,*,#226,.T.);
#83=ORIENTED_EDGE('',*,*,#227,.T.);
#84=ORIENTED_EDGE('',*,*,#228,.F.);
#85=ORIENTED_EDGE('',*,*,#229,.T.);
#86=ORIENTED_EDGE('',*,*,#230,.T.);
#87=ORIENTED_EDGE('',*,*,#231,.T.);
#88=ORIENTED_EDGE('',*,*,#232,.T.);
#89=ORIENTED_EDGE('',*,*,#233,.T.);
#90=ORIENTED_EDGE('',*,*,#234,.T.);
#91=ORIENTED_EDGE('',*,*,#235,.T.);
#92=ORIENTED_EDGE('',*,*,#236,.F.);
#93=ORIENTED_EDGE('',*,*,#237,.T.);
#94=ORIENTED_EDGE('',*,*,#238,.T.);
#95=ORIENTED_EDGE('',*,*,#239,.T.);
#96=ORIENTED_EDGE('',*,*,#240,.T.);
#97=ORIENTED_EDGE('',*,*,#241,.T.);
#98=ORIENTED_EDGE('',*,*,#242,.T.);
#99=ORIENTED_EDGE('',*,*,#243,.T.);
#100=ORIENTED_EDGE('',*,*,#230,.F.);
#101=ORIENTED_EDGE('',*,*,#244,.T.);
#102=ORIENTED_EDGE('',*,*,#220,.T.);
#103=ORIENTED_EDGE('',*,*,#245,.T.);
#104=ORIENTED_EDGE('',*,*,#236,.T.);
#105=ORIENTED_EDGE('',*,*,#246,.T.);
#106=ORIENTED_EDGE('',*,*,#247,.F.);
#107=ORIENTED_EDGE('',*,*,#248,.T.);
#108=ORIENTED_EDGE('',*,*,#249,.T.);
#109=ORIENTED_EDGE('',*,*,#250,.T.);
#110=ORIENTED_EDGE('',*,*,#247,.T.);
#111=ORIENTED_EDGE('',*,*,#251,.T.);
#112=ORIENTED_EDGE('',*,*,#252,.T.);
#113=ORIENTED_EDGE('',*,*,#253,.T.);
#114=ORIENTED_EDGE('',*,*,#254,.T.);
#115=ORIENTED_EDGE('',*,*,#255,.T.);
#116=ORIENTED_EDGE('',*,*,#222,.F.);
#117=ORIENTED_EDGE('',*,*,#256,.T.);
#118=ORIENTED_EDGE('',*,*,#228,.T.);
#119=ORIENTED_EDGE('',*,*,#257,.T.);
#120=ORIENTED_EDGE('',*,*,#258,.T.);
#121=ORIENTED_EDGE('',*,*,#259,.T.);
#122=ORIENTED_EDGE('',*,*,#238,.F.);
#123=ORIENTED_EDGE('',*,*,#260,.T.);
#124=ORIENTED_EDGE('',*,*,#258,.F.);
#125=ORIENTED_EDGE('',*,*,#261,.T.);
#126=ORIENTED_EDGE('',*,*,#262,.T.);
#127=ORIENTED_EDGE('',*,*,#263,.T.);
#128=ORIENTED_EDGE('',*,*,#264,.T.);
#129=ORIENTED_EDGE('',*,*,#265,.T.);
#130=ORIENTED_EDGE('',*,*,#266,.T.);
#131=ORIENTED_EDGE('',*,*,#267,.T.);
#132=ORIENTED_EDGE('',*,*,#268,.F.);
#133=ORIENTED_EDGE('',*,*,#251,.F.);
#134=ORIENTED_EDGE('',*,*,#246,.F.);
#135=ORIENTED_EDGE('',*,*,#243,.F.);
#136=ORIENTED_EDGE('',*,*,#269,.F.);
#137=ORIENTED_EDGE('',*,*,#268,.T.);
#138=ORIENTED_EDGE('',*,*,#270,.F.);
#139=ORIENTED_EDGE('',*,*,#270,.T.);
#140=ORIENTED_EDGE('',*,*,#242,.F.);
#141=ORIENTED_EDGE('',*,*,#271,.F.);
#142=ORIENTED_EDGE('',*,*,#255,.F.);
#143=ORIENTED_EDGE('',*,*,#269,.T.);
#144=ORIENTED_EDGE('',*,*,#254,.F.);
#145=ORIENTED_EDGE('',*,*,#272,.F.);
#146=ORIENTED_EDGE('',*,*,#249,.F.);
#147=ORIENTED_EDGE('',*,*,#248,.F.);
#148=ORIENTED_EDGE('',*,*,#250,.F.);
#149=ORIENTED_EDGE('',*,*,#273,.F.);
#150=ORIENTED_EDGE('',*,*,#231,.F.);
#151=ORIENTED_EDGE('',*,*,#274,.F.);
#152=ORIENTED_EDGE('',*,*,#271,.T.);
#153=ORIENTED_EDGE('',*,*,#275,.F.);
#154=ORIENTED_EDGE('',*,*,#273,.T.);
#155=ORIENTED_EDGE('',*,*,#272,.T.);
#156=ORIENTED_EDGE('',*,*,#276,.F.);
#157=ORIENTED_EDGE('',*,*,#275,.T.);
#158=ORIENTED_EDGE('',*,*,#241,.F.);
#159=ORIENTED_EDGE('',*,*,#277,.F.);
#160=ORIENTED_EDGE('',*,*,#227,.F.);
#161=ORIENTED_EDGE('',*,*,#274,.T.);
#162=ORIENTED_EDGE('',*,*,#226,.F.);
#163=ORIENTED_EDGE('',*,*,#278,.F.);
#164=ORIENTED_EDGE('',*,*,#252,.F.);
#165=ORIENTED_EDGE('',*,*,#276,.T.);
#166=ORIENTED_EDGE('',*,*,#253,.F.);
#167=ORIENTED_EDGE('',*,*,#279,.F.);
#168=ORIENTED_EDGE('',*,*,#232,.F.);
#169=ORIENTED_EDGE('',*,*,#280,.F.);
#170=ORIENTED_EDGE('',*,*,#277,.T.);
#171=ORIENTED_EDGE('',*,*,#281,.F.);
#172=ORIENTED_EDGE('',*,*,#279,.T.);
#173=ORIENTED_EDGE('',*,*,#278,.T.);
#174=ORIENTED_EDGE('',*,*,#282,.F.);
#175=ORIENTED_EDGE('',*,*,#259,.F.);
#176=ORIENTED_EDGE('',*,*,#263,.F.);
#177=ORIENTED_EDGE('',*,*,#283,.F.);
#178=ORIENTED_EDGE('',*,*,#239,.F.);
#179=ORIENTED_EDGE('',*,*,#281,.T.);
#180=ORIENTED_EDGE('',*,*,#240,.F.);
#181=ORIENTED_EDGE('',*,*,#284,.F.);
#182=ORIENTED_EDGE('',*,*,#264,.F.);
#183=ORIENTED_EDGE('',*,*,#280,.T.);
#184=ORIENTED_EDGE('',*,*,#267,.F.);
#185=ORIENTED_EDGE('',*,*,#285,.F.);
#186=ORIENTED_EDGE('',*,*,#224,.F.);
#187=ORIENTED_EDGE('',*,*,#282,.T.);
#188=ORIENTED_EDGE('',*,*,#225,.F.);
#189=ORIENTED_EDGE('',*,*,#286,.F.);
#190=ORIENTED_EDGE('',*,*,#233,.F.);
#191=ORIENTED_EDGE('',*,*,#284,.T.);
#192=ORIENTED_EDGE('',*,*,#283,.T.);
#193=ORIENTED_EDGE('',*,*,#287,.F.);
#194=ORIENTED_EDGE('',*,*,#286,.T.);
#195=ORIENTED_EDGE('',*,*,#285,.T.);
#196=ORIENTED_EDGE('',*,*,#288,.F.);
#197=ORIENTED_EDGE('',*,*,#287,.T.);
#198=ORIENTED_EDGE('',*,*,#262,.F.);
#199=ORIENTED_EDGE('',*,*,#289,.F.);
#200=ORIENTED_EDGE('',*,*,#265,.F.);
#201=ORIENTED_EDGE('',*,*,#288,.T.);
#202=ORIENTED_EDGE('',*,*,#266,.F.);
#203=ORIENTED_EDGE('',*,*,#290,.F.);
#204=ORIENTED_EDGE('',*,*,#234,.F.);
#205=ORIENTED_EDGE('',*,*,#290,.T.);
#206=ORIENTED_EDGE('',*,*,#289,.T.);
#207=ORIENTED_EDGE('',*,*,#291,.F.);
#208=ORIENTED_EDGE('',*,*,#257,.F.);
#209=ORIENTED_EDGE('',*,*,#235,.F.);
#210=ORIENTED_EDGE('',*,*,#291,.T.);
#211=ORIENTED_EDGE('',*,*,#261,.F.);
#212=ORIENTED_EDGE('',*,*,#260,.F.);
#213=ORIENTED_EDGE('',*,*,#237,.F.);
#214=ORIENTED_EDGE('',*,*,#245,.F.);
#215=ORIENTED_EDGE('',*,*,#223,.F.);
#216=ORIENTED_EDGE('',*,*,#244,.F.);
#217=ORIENTED_EDGE('',*,*,#229,.F.);
#218=ORIENTED_EDGE('',*,*,#256,.F.);
#219=ORIENTED_EDGE('',*,*,#221,.F.);
#220=EDGE_CURVE('',#292,#293,#332,.T.);
#221=EDGE_CURVE('',#292,#294,#333,.T.);
#222=EDGE_CURVE('',#294,#295,#334,.T.);
#223=EDGE_CURVE('',#295,#293,#335,.T.);
#224=EDGE_CURVE('',#296,#297,#336,.F.);
#225=EDGE_CURVE('',#297,#298,#337,.F.);
#226=EDGE_CURVE('',#298,#299,#338,.T.);
#227=EDGE_CURVE('',#299,#296,#339,.F.);
#228=EDGE_CURVE('',#300,#301,#340,.T.);
#229=EDGE_CURVE('',#300,#302,#341,.F.);
#230=EDGE_CURVE('',#302,#303,#342,.T.);
#231=EDGE_CURVE('',#303,#304,#343,.T.);
#232=EDGE_CURVE('',#304,#305,#344,.T.);
#233=EDGE_CURVE('',#305,#306,#345,.T.);
#234=EDGE_CURVE('',#306,#307,#346,.F.);
#235=EDGE_CURVE('',#307,#301,#347,.F.);
#236=EDGE_CURVE('',#308,#309,#348,.T.);
#237=EDGE_CURVE('',#308,#310,#349,.F.);
#238=EDGE_CURVE('',#310,#311,#350,.T.);
#239=EDGE_CURVE('',#311,#312,#351,.T.);
#240=EDGE_CURVE('',#312,#313,#352,.T.);
#241=EDGE_CURVE('',#313,#314,#353,.T.);
#242=EDGE_CURVE('',#314,#315,#354,.F.);
#243=EDGE_CURVE('',#315,#309,#355,.F.);
#244=EDGE_CURVE('',#302,#292,#44,.F.);
#245=EDGE_CURVE('',#293,#308,#45,.F.);
#246=EDGE_CURVE('',#309,#316,#46,.T.);
#247=EDGE_CURVE('',#317,#316,#356,.T.);
#248=EDGE_CURVE('',#317,#303,#47,.T.);
#249=EDGE_CURVE('',#318,#319,#357,.F.);
#250=EDGE_CURVE('',#319,#317,#358,.F.);
#251=EDGE_CURVE('',#316,#318,#359,.T.);
#252=EDGE_CURVE('',#320,#321,#360,.F.);
#253=EDGE_CURVE('',#321,#322,#361,.F.);
#254=EDGE_CURVE('',#322,#323,#362,.T.);
#255=EDGE_CURVE('',#323,#320,#363,.T.);
#256=EDGE_CURVE('',#294,#300,#48,.T.);
#257=EDGE_CURVE('',#301,#324,#49,.F.);
#258=EDGE_CURVE('',#324,#325,#364,.T.);
#259=EDGE_CURVE('',#325,#311,#50,.F.);
#260=EDGE_CURVE('',#310,#295,#51,.T.);
#261=EDGE_CURVE('',#324,#326,#365,.T.);
#262=EDGE_CURVE('',#326,#327,#366,.T.);
#263=EDGE_CURVE('',#327,#325,#367,.F.);
#264=EDGE_CURVE('',#328,#329,#368,.F.);
#265=EDGE_CURVE('',#329,#330,#369,.F.);
#266=EDGE_CURVE('',#330,#331,#370,.T.);
#267=EDGE_CURVE('',#331,#328,#371,.T.);
#268=EDGE_CURVE('',#318,#315,#52,.T.);
#269=EDGE_CURVE('',#318,#323,#53,.F.);
#270=EDGE_CURVE('',#323,#315,#54,.F.);
#271=EDGE_CURVE('',#320,#314,#55,.T.);
#272=EDGE_CURVE('',#319,#322,#56,.T.);
#273=EDGE_CURVE('',#304,#319,#57,.T.);
#274=EDGE_CURVE('',#320,#299,#58,.F.);
#275=EDGE_CURVE('',#299,#314,#59,.F.);
#276=EDGE_CURVE('',#304,#322,#60,.F.);
#277=EDGE_CURVE('',#296,#313,#61,.T.);
#278=EDGE_CURVE('',#321,#298,#62,.T.);
#279=EDGE_CURVE('',#305,#321,#63,.T.);
#280=EDGE_CURVE('',#296,#328,#64,.F.);
#281=EDGE_CURVE('',#328,#313,#65,.F.);
#282=EDGE_CURVE('',#305,#298,#66,.F.);
#283=EDGE_CURVE('',#312,#327,#67,.T.);
#284=EDGE_CURVE('',#329,#312,#68,.T.);
#285=EDGE_CURVE('',#297,#331,#69,.T.);
#286=EDGE_CURVE('',#306,#297,#70,.T.);
#287=EDGE_CURVE('',#329,#327,#71,.F.);
#288=EDGE_CURVE('',#306,#331,#72,.F.);
#289=EDGE_CURVE('',#330,#326,#73,.T.);
#290=EDGE_CURVE('',#307,#330,#74,.T.);
#291=EDGE_CURVE('',#307,#326,#75,.F.);
#292=VERTEX_POINT('',#1012);
#293=VERTEX_POINT('',#1013);
#294=VERTEX_POINT('',#1015);
#295=VERTEX_POINT('',#1017);
#296=VERTEX_POINT('',#1021);
#297=VERTEX_POINT('',#1022);
#298=VERTEX_POINT('',#1024);
#299=VERTEX_POINT('',#1026);
#300=VERTEX_POINT('',#1030);
#301=VERTEX_POINT('',#1031);
#302=VERTEX_POINT('',#1033);
#303=VERTEX_POINT('',#1035);
#304=VERTEX_POINT('',#1037);
#305=VERTEX_POINT('',#1039);
#306=VERTEX_POINT('',#1041);
#307=VERTEX_POINT('',#1043);
#308=VERTEX_POINT('',#1047);
#309=VERTEX_POINT('',#1048);
#310=VERTEX_POINT('',#1050);
#311=VERTEX_POINT('',#1052);
#312=VERTEX_POINT('',#1054);
#313=VERTEX_POINT('',#1056);
#314=VERTEX_POINT('',#1058);
#315=VERTEX_POINT('',#1060);
#316=VERTEX_POINT('',#1066);
#317=VERTEX_POINT('',#1068);
#318=VERTEX_POINT('',#1072);
#319=VERTEX_POINT('',#1073);
#320=VERTEX_POINT('',#1078);
#321=VERTEX_POINT('',#1079);
#322=VERTEX_POINT('',#1081);
#323=VERTEX_POINT('',#1083);
#324=VERTEX_POINT('',#1088);
#325=VERTEX_POINT('',#1090);
#326=VERTEX_POINT('',#1095);
#327=VERTEX_POINT('',#1097);
#328=VERTEX_POINT('',#1101);
#329=VERTEX_POINT('',#1102);
#330=VERTEX_POINT('',#1104);
#331=VERTEX_POINT('',#1106);
#332=LINE('',#1011,#372);
#333=LINE('',#1014,#373);
#334=LINE('',#1016,#374);
#335=LINE('',#1018,#375);
#336=LINE('',#1020,#376);
#337=LINE('',#1023,#377);
#338=LINE('',#1025,#378);
#339=LINE('',#1027,#379);
#340=LINE('',#1029,#380);
#341=LINE('',#1032,#381);
#342=LINE('',#1034,#382);
#343=LINE('',#1036,#383);
#344=LINE('',#1038,#384);
#345=LINE('',#1040,#385);
#346=LINE('',#1042,#386);
#347=LINE('',#1044,#387);
#348=LINE('',#1046,#388);
#349=LINE('',#1049,#389);
#350=LINE('',#1051,#390);
#351=LINE('',#1053,#391);
#352=LINE('',#1055,#392);
#353=LINE('',#1057,#393);
#354=LINE('',#1059,#394);
#355=LINE('',#1061,#395);
#356=LINE('',#1067,#396);
#357=LINE('',#1071,#397);
#358=LINE('',#1074,#398);
#359=LINE('',#1075,#399);
#360=LINE('',#1077,#400);
#361=LINE('',#1080,#401);
#362=LINE('',#1082,#402);
#363=LINE('',#1084,#403);
#364=LINE('',#1089,#404);
#365=LINE('',#1094,#405);
#366=LINE('',#1096,#406);
#367=LINE('',#1098,#407);
#368=LINE('',#1100,#408);
#369=LINE('',#1103,#409);
#370=LINE('',#1105,#410);
#371=LINE('',#1107,#411);
#372=VECTOR('',#839,1000.);
#373=VECTOR('',#840,1000.);
#374=VECTOR('',#841,1000.);
#375=VECTOR('',#842,1000.);
#376=VECTOR('',#845,1000.);
#377=VECTOR('',#846,1000.);
#378=VECTOR('',#847,1000.);
#379=VECTOR('',#848,1000.);
#380=VECTOR('',#851,1000.);
#381=VECTOR('',#852,1000.);
#382=VECTOR('',#853,1000.);
#383=VECTOR('',#854,1000.);
#384=VECTOR('',#855,1000.);
#385=VECTOR('',#856,1000.);
#386=VECTOR('',#857,1000.);
#387=VECTOR('',#858,1000.);
#388=VECTOR('',#861,1000.);
#389=VECTOR('',#862,1000.);
#390=VECTOR('',#863,1000.);
#391=VECTOR('',#864,1000.);
#392=VECTOR('',#865,1000.);
#393=VECTOR('',#866,1000.);
#394=VECTOR('',#867,1000.);
#395=VECTOR('',#868,1000.);
#396=VECTOR('',#877,1000.);
#397=VECTOR('',#882,1000.);
#398=VECTOR('',#883,1000.);
#399=VECTOR('',#884,1000.);
#400=VECTOR('',#887,1000.);
#401=VECTOR('',#888,1000.);
#402=VECTOR('',#889,1000.);
#403=VECTOR('',#890,1000.);
#404=VECTOR('',#897,1000.);
#405=VECTOR('',#904,1000.);
#406=VECTOR('',#905,1000.);
#407=VECTOR('',#906,1000.);
#408=VECTOR('',#909,1000.);
#409=VECTOR('',#910,1000.);
#410=VECTOR('',#911,1000.);
#411=VECTOR('',#912,1000.);
#412=EDGE_LOOP('',(#76,#77,#78,#79));
#413=EDGE_LOOP('',(#80,#81,#82,#83));
#414=EDGE_LOOP('',(#84,#85,#86,#87,#88,#89,#90,#91));
#415=EDGE_LOOP('',(#92,#93,#94,#95,#96,#97,#98,#99));
#416=EDGE_LOOP('',(#100,#101,#102,#103,#104,#105,#106,#107));
#417=EDGE_LOOP('',(#108,#109,#110,#111));
#418=EDGE_LOOP('',(#112,#113,#114,#115));
#419=EDGE_LOOP('',(#116,#117,#118,#119,#120,#121,#122,#123));
#420=EDGE_LOOP('',(#124,#125,#126,#127));
#421=EDGE_LOOP('',(#128,#129,#130,#131));
#422=EDGE_LOOP('',(#132,#133,#134,#135));
#423=EDGE_LOOP('',(#136,#137,#138));
#424=EDGE_LOOP('',(#139,#140,#141,#142));
#425=EDGE_LOOP('',(#143,#144,#145,#146));
#426=EDGE_LOOP('',(#147,#148,#149,#150));
#427=EDGE_LOOP('',(#151,#152,#153));
#428=EDGE_LOOP('',(#154,#155,#156));
#429=EDGE_LOOP('',(#157,#158,#159,#160));
#430=EDGE_LOOP('',(#161,#162,#163,#164));
#431=EDGE_LOOP('',(#165,#166,#167,#168));
#432=EDGE_LOOP('',(#169,#170,#171));
#433=EDGE_LOOP('',(#172,#173,#174));
#434=EDGE_LOOP('',(#175,#176,#177,#178));
#435=EDGE_LOOP('',(#179,#180,#181,#182));
#436=EDGE_LOOP('',(#183,#184,#185,#186));
#437=EDGE_LOOP('',(#187,#188,#189,#190));
#438=EDGE_LOOP('',(#191,#192,#193));
#439=EDGE_LOOP('',(#194,#195,#196));
#440=EDGE_LOOP('',(#197,#198,#199,#200));
#441=EDGE_LOOP('',(#201,#202,#203,#204));
#442=EDGE_LOOP('',(#205,#206,#207));
#443=EDGE_LOOP('',(#208,#209,#210,#211));
#444=EDGE_LOOP('',(#212,#213,#214,#215));
#445=EDGE_LOOP('',(#216,#217,#218,#219));
#446=FACE_BOUND('',#412,.T.);
#447=FACE_BOUND('',#413,.T.);
#448=FACE_BOUND('',#414,.T.);
#449=FACE_BOUND('',#415,.T.);
#450=FACE_BOUND('',#416,.T.);
#451=FACE_BOUND('',#417,.T.);
#452=FACE_BOUND('',#418,.T.);
#453=FACE_BOUND('',#419,.T.);
#454=FACE_BOUND('',#420,.T.);
#455=FACE_BOUND('',#421,.T.);
#456=FACE_BOUND('',#422,.T.);
#457=FACE_BOUND('',#423,.T.);
#458=FACE_BOUND('',#424,.T.);
#459=FACE_BOUND('',#425,.T.);
#460=FACE_BOUND('',#426,.T.);
#461=FACE_BOUND('',#427,.T.);
#462=FACE_BOUND('',#428,.T.);
#463=FACE_BOUND('',#429,.T.);
#464=FACE_BOUND('',#430,.T.);
#465=FACE_BOUND('',#431,.T.);
#466=FACE_BOUND('',#432,.T.);
#467=FACE_BOUND('',#433,.T.);
#468=FACE_BOUND('',#434,.T.);
#469=FACE_BOUND('',#435,.T.);
#470=FACE_BOUND('',#436,.T.);
#471=FACE_BOUND('',#437,.T.);
#472=FACE_BOUND('',#438,.T.);
#473=FACE_BOUND('',#439,.T.);
#474=FACE_BOUND('',#440,.T.);
#475=FACE_BOUND('',#441,.T.);
#476=FACE_BOUND('',#442,.T.);
#477=FACE_BOUND('',#443,.T.);
#478=FACE_BOUND('',#444,.T.);
#479=FACE_BOUND('',#445,.T.);
#480=PLANE('',#769);
#481=PLANE('',#770);
#482=PLANE('',#771);
#483=PLANE('',#772);
#484=PLANE('',#773);
#485=PLANE('',#778);
#486=PLANE('',#779);
#487=PLANE('',#780);
#488=PLANE('',#785);
#489=PLANE('',#786);
#490=STYLED_ITEM('',(#524),#730);
#491=STYLED_ITEM('',(#525),#731);
#492=STYLED_ITEM('',(#526),#732);
#493=STYLED_ITEM('',(#527),#733);
#494=STYLED_ITEM('',(#528),#734);
#495=STYLED_ITEM('',(#529),#735);
#496=STYLED_ITEM('',(#530),#736);
#497=STYLED_ITEM('',(#531),#737);
#498=STYLED_ITEM('',(#532),#738);
#499=STYLED_ITEM('',(#533),#739);
#500=STYLED_ITEM('',(#534),#740);
#501=STYLED_ITEM('',(#535),#741);
#502=STYLED_ITEM('',(#536),#742);
#503=STYLED_ITEM('',(#537),#743);
#504=STYLED_ITEM('',(#538),#744);
#505=STYLED_ITEM('',(#539),#745);
#506=STYLED_ITEM('',(#540),#746);
#507=STYLED_ITEM('',(#541),#747);
#508=STYLED_ITEM('',(#542),#748);
#509=STYLED_ITEM('',(#543),#749);
#510=STYLED_ITEM('',(#544),#750);
#511=STYLED_ITEM('',(#545),#751);
#512=STYLED_ITEM('',(#546),#752);
#513=STYLED_ITEM('',(#547),#753);
#514=STYLED_ITEM('',(#548),#754);
#515=STYLED_ITEM('',(#549),#755);
#516=STYLED_ITEM('',(#550),#756);
#517=STYLED_ITEM('',(#551),#757);
#518=STYLED_ITEM('',(#552),#758);
#519=STYLED_ITEM('',(#553),#759);
#520=STYLED_ITEM('',(#554),#760);
#521=STYLED_ITEM('',(#555),#761);
#522=STYLED_ITEM('',(#556),#762);
#523=STYLED_ITEM('',(#557),#763);
#524=PRESENTATION_STYLE_ASSIGNMENT((#558));
#525=PRESENTATION_STYLE_ASSIGNMENT((#559));
#526=PRESENTATION_STYLE_ASSIGNMENT((#560));
#527=PRESENTATION_STYLE_ASSIGNMENT((#561));
#528=PRESENTATION_STYLE_ASSIGNMENT((#562));
#529=PRESENTATION_STYLE_ASSIGNMENT((#563));
#530=PRESENTATION_STYLE_ASSIGNMENT((#564));
#531=PRESENTATION_STYLE_ASSIGNMENT((#565));
#532=PRESENTATION_STYLE_ASSIGNMENT((#566));
#533=PRESENTATION_STYLE_ASSIGNMENT((#567));
#534=PRESENTATION_STYLE_ASSIGNMENT((#568));
#535=PRESENTATION_STYLE_ASSIGNMENT((#569));
#536=PRESENTATION_STYLE_ASSIGNMENT((#570));
#537=PRESENTATION_STYLE_ASSIGNMENT((#571));
#538=PRESENTATION_STYLE_ASSIGNMENT((#572));
#539=PRESENTATION_STYLE_ASSIGNMENT((#573));
#540=PRESENTATION_STYLE_ASSIGNMENT((#574));
#541=PRESENTATION_STYLE_ASSIGNMENT((#575));
#542=PRESENTATION_STYLE_ASSIGNMENT((#576));
#543=PRESENTATION_STYLE_ASSIGNMENT((#577));
#544=PRESENTATION_STYLE_ASSIGNMENT((#578));
#545=PRESENTATION_STYLE_ASSIGNMENT((#579));
#546=PRESENTATION_STYLE_ASSIGNMENT((#580));
#547=PRESENTATION_STYLE_ASSIGNMENT((#581));
#548=PRESENTATION_STYLE_ASSIGNMENT((#582));
#549=PRESENTATION_STYLE_ASSIGNMENT((#583));
#550=PRESENTATION_STYLE_ASSIGNMENT((#584));
#551=PRESENTATION_STYLE_ASSIGNMENT((#585));
#552=PRESENTATION_STYLE_ASSIGNMENT((#586));
#553=PRESENTATION_STYLE_ASSIGNMENT((#587));
#554=PRESENTATION_STYLE_ASSIGNMENT((#588));
#555=PRESENTATION_STYLE_ASSIGNMENT((#589));
#556=PRESENTATION_STYLE_ASSIGNMENT((#590));
#557=PRESENTATION_STYLE_ASSIGNMENT((#591));
#558=SURFACE_STYLE_USAGE(.BOTH.,#592);
#559=SURFACE_STYLE_USAGE(.BOTH.,#593);
#560=SURFACE_STYLE_USAGE(.BOTH.,#594);
#561=SURFACE_STYLE_USAGE(.BOTH.,#595);
#562=SURFACE_STYLE_USAGE(.BOTH.,#596);
#563=SURFACE_STYLE_USAGE(.BOTH.,#597);
#564=SURFACE_STYLE_USAGE(.BOTH.,#598);
#565=SURFACE_STYLE_USAGE(.BOTH.,#599);
#566=SURFACE_STYLE_USAGE(.BOTH.,#600);
#567=SURFACE_STYLE_USAGE(.BOTH.,#601);
#568=SURFACE_STYLE_USAGE(.BOTH.,#602);
#569=SURFACE_STYLE_USAGE(.BOTH.,#603);
#570=SURFACE_STYLE_USAGE(.BOTH.,#604);
#571=SURFACE_STYLE_USAGE(.BOTH.,#605);
#572=SURFACE_STYLE_USAGE(.BOTH.,#606);
#573=SURFACE_STYLE_USAGE(.BOTH.,#607);
#574=SURFACE_STYLE_USAGE(.BOTH.,#608);
#575=SURFACE_STYLE_USAGE(.BOTH.,#609);
#576=SURFACE_STYLE_USAGE(.BOTH.,#610);
#577=SURFACE_STYLE_USAGE(.BOTH.,#611);
#578=SURFACE_STYLE_USAGE(.BOTH.,#612);
#579=SURFACE_STYLE_USAGE(.BOTH.,#613);
#580=SURFACE_STYLE_USAGE(.BOTH.,#614);
#581=SURFACE_STYLE_USAGE(.BOTH.,#615);
#582=SURFACE_STYLE_USAGE(.BOTH.,#616);
#583=SURFACE_STYLE_USAGE(.BOTH.,#617);
#584=SURFACE_STYLE_USAGE(.BOTH.,#618);
#585=SURFACE_STYLE_USAGE(.BOTH.,#619);
#586=SURFACE_STYLE_USAGE(.BOTH.,#620);
#587=SURFACE_STYLE_USAGE(.BOTH.,#621);
#588=SURFACE_STYLE_USAGE(.BOTH.,#622);
#589=SURFACE_STYLE_USAGE(.BOTH.,#623);
#590=SURFACE_STYLE_USAGE(.BOTH.,#624);
#591=SURFACE_STYLE_USAGE(.BOTH.,#625);
#592=SURFACE_SIDE_STYLE('',(#626));
#593=SURFACE_SIDE_STYLE('',(#627));
#594=SURFACE_SIDE_STYLE('',(#628));
#595=SURFACE_SIDE_STYLE('',(#629));
#596=SURFACE_SIDE_STYLE('',(#630));
#597=SURFACE_SIDE_STYLE('',(#631));
#598=SURFACE_SIDE_STYLE('',(#632));
#599=SURFACE_SIDE_STYLE('',(#633));
#600=SURFACE_SIDE_STYLE('',(#634));
#601=SURFACE_SIDE_STYLE('',(#635));
#602=SURFACE_SIDE_STYLE('',(#636));
#603=SURFACE_SIDE_STYLE('',(#637));
#604=SURFACE_SIDE_STYLE('',(#638));
#605=SURFACE_SIDE_STYLE('',(#639));
#606=SURFACE_SIDE_STYLE('',(#640));
#607=SURFACE_SIDE_STYLE('',(#641));
#608=SURFACE_SIDE_STYLE('',(#642));
#609=SURFACE_SIDE_STYLE('',(#643));
#610=SURFACE_SIDE_STYLE('',(#644));
#611=SURFACE_SIDE_STYLE('',(#645));
#612=SURFACE_SIDE_STYLE('',(#646));
#613=SURFACE_SIDE_STYLE('',(#647));
#614=SURFACE_SIDE_STYLE('',(#648));
#615=SURFACE_SIDE_STYLE('',(#649));
#616=SURFACE_SIDE_STYLE('',(#650));
#617=SURFACE_SIDE_STYLE('',(#651));
#618=SURFACE_SIDE_STYLE('',(#652));
#619=SURFACE_SIDE_STYLE('',(#653));
#620=SURFACE_SIDE_STYLE('',(#654));
#621=SURFACE_SIDE_STYLE('',(#655));
#622=SURFACE_SIDE_STYLE('',(#656));
#623=SURFACE_SIDE_STYLE('',(#657));
#624=SURFACE_SIDE_STYLE('',(#658));
#625=SURFACE_SIDE_STYLE('',(#659));
#626=SURFACE_STYLE_FILL_AREA(#660);
#627=SURFACE_STYLE_FILL_AREA(#661);
#628=SURFACE_STYLE_FILL_AREA(#662);
#629=SURFACE_STYLE_FILL_AREA(#663);
#630=SURFACE_STYLE_FILL_AREA(#664);
#631=SURFACE_STYLE_FILL_AREA(#665);
#632=SURFACE_STYLE_FILL_AREA(#666);
#633=SURFACE_STYLE_FILL_AREA(#667);
#634=SURFACE_STYLE_FILL_AREA(#668);
#635=SURFACE_STYLE_FILL_AREA(#669);
#636=SURFACE_STYLE_FILL_AREA(#670);
#637=SURFACE_STYLE_FILL_AREA(#671);
#638=SURFACE_STYLE_FILL_AREA(#672);
#639=SURFACE_STYLE_FILL_AREA(#673);
#640=SURFACE_STYLE_FILL_AREA(#674);
#641=SURFACE_STYLE_FILL_AREA(#675);
#642=SURFACE_STYLE_FILL_AREA(#676);
#643=SURFACE_STYLE_FILL_AREA(#677);
#644=SURFACE_STYLE_FILL_AREA(#678);
#645=SURFACE_STYLE_FILL_AREA(#679);
#646=SURFACE_STYLE_FILL_AREA(#680);
#647=SURFACE_STYLE_FILL_AREA(#681);
#648=SURFACE_STYLE_FILL_AREA(#682);
#649=SURFACE_STYLE_FILL_AREA(#683);
#650=SURFACE_STYLE_FILL_AREA(#684);
#651=SURFACE_STYLE_FILL_AREA(#685);
#652=SURFACE_STYLE_FILL_AREA(#686);
#653=SURFACE_STYLE_FILL_AREA(#687);
#654=SURFACE_STYLE_FILL_AREA(#688);
#655=SURFACE_STYLE_FILL_AREA(#689);
#656=SURFACE_STYLE_FILL_AREA(#690);
#657=SURFACE_STYLE_FILL_AREA(#691);
#658=SURFACE_STYLE_FILL_AREA(#692);
#659=SURFACE_STYLE_FILL_AREA(#693);
#660=FILL_AREA_STYLE('',(#694));
#661=FILL_AREA_STYLE('',(#695));
#662=FILL_AREA_STYLE('',(#696));
#663=FILL_AREA_STYLE('',(#697));
#664=FILL_AREA_STYLE('',(#698));
#665=FILL_AREA_STYLE('',(#699));
#666=FILL_AREA_STYLE('',(#700));
#667=FILL_AREA_STYLE('',(#701));
#668=FILL_AREA_STYLE('',(#702));
#669=FILL_AREA_STYLE('',(#703));
#670=FILL_AREA_STYLE('',(#704));
#671=FILL_AREA_STYLE('',(#705));
#672=FILL_AREA_STYLE('',(#706));
#673=FILL_AREA_STYLE('',(#707));
#674=FILL_AREA_STYLE('',(#708));
#675=FILL_AREA_STYLE('',(#709));
#676=FILL_AREA_STYLE('',(#710));
#677=FILL_AREA_STYLE('',(#711));
#678=FILL_AREA_STYLE('',(#712));
#679=FILL_AREA_STYLE('',(#713));
#680=FILL_AREA_STYLE('',(#714));
#681=FILL_AREA_STYLE('',(#715));
#682=FILL_AREA_STYLE('',(#716));
#683=FILL_AREA_STYLE('',(#717));
#684=FILL_AREA_STYLE('',(#718));
#685=FILL_AREA_STYLE('',(#719));
#686=FILL_AREA_STYLE('',(#720));
#687=FILL_AREA_STYLE('',(#721));
#688=FILL_AREA_STYLE('',(#722));
#689=FILL_AREA_STYLE('',(#723));
#690=FILL_AREA_STYLE('',(#724));
#691=FILL_AREA_STYLE('',(#725));
#692=FILL_AREA_STYLE('',(#726));
#693=FILL_AREA_STYLE('',(#727));
#694=FILL_AREA_STYLE_COLOUR('',#728);
#695=FILL_AREA_STYLE_COLOUR('',#728);
#696=FILL_AREA_STYLE_COLOUR('',#728);
#697=FILL_AREA_STYLE_COLOUR('',#728);
#698=FILL_AREA_STYLE_COLOUR('',#728);
#699=FILL_AREA_STYLE_COLOUR('',#729);
#700=FILL_AREA_STYLE_COLOUR('',#729);
#701=FILL_AREA_STYLE_COLOUR('',#728);
#702=FILL_AREA_STYLE_COLOUR('',#729);
#703=FILL_AREA_STYLE_COLOUR('',#729);
#704=FILL_AREA_STYLE_COLOUR('',#729);
#705=FILL_AREA_STYLE_COLOUR('',#729);
#706=FILL_AREA_STYLE_COLOUR('',#729);
#707=FILL_AREA_STYLE_COLOUR('',#729);
#708=FILL_AREA_STYLE_COLOUR('',#729);
#709=FILL_AREA_STYLE_COLOUR('',#729);
#710=FILL_AREA_STYLE_COLOUR('',#729);
#711=FILL_AREA_STYLE_COLOUR('',#728);
#712=FILL_AREA_STYLE_COLOUR('',#729);
#713=FILL_AREA_STYLE_COLOUR('',#729);
#714=FILL_AREA_STYLE_COLOUR('',#729);
#715=FILL_AREA_STYLE_COLOUR('',#729);
#716=FILL_AREA_STYLE_COLOUR('',#729);
#717=FILL_AREA_STYLE_COLOUR('',#729);
#718=FILL_AREA_STYLE_COLOUR('',#729);
#719=FILL_AREA_STYLE_COLOUR('',#728);
#720=FILL_AREA_STYLE_COLOUR('',#729);
#721=FILL_AREA_STYLE_COLOUR('',#729);
#722=FILL_AREA_STYLE_COLOUR('',#729);
#723=FILL_AREA_STYLE_COLOUR('',#729);
#724=FILL_AREA_STYLE_COLOUR('',#729);
#725=FILL_AREA_STYLE_COLOUR('',#729);
#726=FILL_AREA_STYLE_COLOUR('',#728);
#727=FILL_AREA_STYLE_COLOUR('',#728);
#728=COLOUR_RGB('',0.200000002980232,0.200000002980232,0.200000002980232);
#729=COLOUR_RGB('',0.699999988079071,0.699999988079071,0.699999988079071);
#730=ADVANCED_FACE('',(#446),#480,.T.);
#731=ADVANCED_FACE('',(#447),#481,.F.);
#732=ADVANCED_FACE('',(#448),#482,.F.);
#733=ADVANCED_FACE('',(#449),#483,.F.);
#734=ADVANCED_FACE('',(#450),#484,.F.);
#735=ADVANCED_FACE('',(#451),#485,.F.);
#736=ADVANCED_FACE('',(#452),#486,.F.);
#737=ADVANCED_FACE('',(#453),#487,.T.);
#738=ADVANCED_FACE('',(#454),#488,.T.);
#739=ADVANCED_FACE('',(#455),#489,.T.);
#740=ADVANCED_FACE('',(#456),#28,.T.);
#741=ADVANCED_FACE('',(#457),#20,.T.);
#742=ADVANCED_FACE('',(#458),#29,.T.);
#743=ADVANCED_FACE('',(#459),#30,.T.);
#744=ADVANCED_FACE('',(#460),#31,.T.);
#745=ADVANCED_FACE('',(#461),#21,.T.);
#746=ADVANCED_FACE('',(#462),#22,.T.);
#747=ADVANCED_FACE('',(#463),#32,.T.);
#748=ADVANCED_FACE('',(#464),#33,.T.);
#749=ADVANCED_FACE('',(#465),#34,.T.);
#750=ADVANCED_FACE('',(#466),#23,.T.);
#751=ADVANCED_FACE('',(#467),#24,.T.);
#752=ADVANCED_FACE('',(#468),#35,.T.);
#753=ADVANCED_FACE('',(#469),#36,.T.);
#754=ADVANCED_FACE('',(#470),#37,.T.);
#755=ADVANCED_FACE('',(#471),#38,.T.);
#756=ADVANCED_FACE('',(#472),#25,.T.);
#757=ADVANCED_FACE('',(#473),#26,.T.);
#758=ADVANCED_FACE('',(#474),#39,.T.);
#759=ADVANCED_FACE('',(#475),#40,.T.);
#760=ADVANCED_FACE('',(#476),#27,.T.);
#761=ADVANCED_FACE('',(#477),#41,.T.);
#762=ADVANCED_FACE('',(#478),#42,.T.);
#763=ADVANCED_FACE('',(#479),#43,.T.);
#764=CLOSED_SHELL('',(#730,#731,#732,#733,#734,#735,#736,#737,#738,#739,
#740,#741,#742,#743,#744,#745,#746,#747,#748,#749,#750,#751,#752,#753,#754,
#755,#756,#757,#758,#759,#760,#761,#762,#763));
#765=MANIFOLD_SOLID_BREP('',#764);
#766=SHAPE_DEFINITION_REPRESENTATION(#1162,#767);
#767=SHAPE_REPRESENTATION('WE-PMCI_322510',(#768),#1157);
#768=AXIS2_PLACEMENT_3D('',#1009,#835,#836);
#769=AXIS2_PLACEMENT_3D('',#1010,#837,#838);
#770=AXIS2_PLACEMENT_3D('',#1019,#843,#844);
#771=AXIS2_PLACEMENT_3D('',#1028,#849,#850);
#772=AXIS2_PLACEMENT_3D('',#1045,#859,#860);
#773=AXIS2_PLACEMENT_3D('',#1062,#869,#870);
#774=AXIS2_PLACEMENT_3D('',#1063,#871,#872);
#775=AXIS2_PLACEMENT_3D('',#1064,#873,#874);
#776=AXIS2_PLACEMENT_3D('',#1065,#875,#876);
#777=AXIS2_PLACEMENT_3D('',#1069,#878,#879);
#778=AXIS2_PLACEMENT_3D('',#1070,#880,#881);
#779=AXIS2_PLACEMENT_3D('',#1076,#885,#886);
#780=AXIS2_PLACEMENT_3D('',#1085,#891,#892);
#781=AXIS2_PLACEMENT_3D('',#1086,#893,#894);
#782=AXIS2_PLACEMENT_3D('',#1087,#895,#896);
#783=AXIS2_PLACEMENT_3D('',#1091,#898,#899);
#784=AXIS2_PLACEMENT_3D('',#1092,#900,#901);
#785=AXIS2_PLACEMENT_3D('',#1093,#902,#903);
#786=AXIS2_PLACEMENT_3D('',#1099,#907,#908);
#787=AXIS2_PLACEMENT_3D('',#1108,#913,#914);
#788=AXIS2_PLACEMENT_3D('',#1109,#915,#916);
#789=AXIS2_PLACEMENT_3D('',#1110,#917,#918);
#790=AXIS2_PLACEMENT_3D('',#1111,#919,#920);
#791=AXIS2_PLACEMENT_3D('',#1112,#921,#922);
#792=AXIS2_PLACEMENT_3D('',#1113,#923,#924);
#793=AXIS2_PLACEMENT_3D('',#1114,#925,#926);
#794=AXIS2_PLACEMENT_3D('',#1115,#927,#928);
#795=AXIS2_PLACEMENT_3D('',#1116,#929,#930);
#796=AXIS2_PLACEMENT_3D('',#1117,#931,#932);
#797=AXIS2_PLACEMENT_3D('',#1118,#933,#934);
#798=AXIS2_PLACEMENT_3D('',#1119,#935,#936);
#799=AXIS2_PLACEMENT_3D('',#1120,#937,#938);
#800=AXIS2_PLACEMENT_3D('',#1121,#939,#940);
#801=AXIS2_PLACEMENT_3D('',#1122,#941,#942);
#802=AXIS2_PLACEMENT_3D('',#1123,#943,#944);
#803=AXIS2_PLACEMENT_3D('',#1124,#945,#946);
#804=AXIS2_PLACEMENT_3D('',#1125,#947,#948);
#805=AXIS2_PLACEMENT_3D('',#1126,#949,#950);
#806=AXIS2_PLACEMENT_3D('',#1127,#951,#952);
#807=AXIS2_PLACEMENT_3D('',#1128,#953,#954);
#808=AXIS2_PLACEMENT_3D('',#1129,#955,#956);
#809=AXIS2_PLACEMENT_3D('',#1130,#957,#958);
#810=AXIS2_PLACEMENT_3D('',#1131,#959,#960);
#811=AXIS2_PLACEMENT_3D('',#1132,#961,#962);
#812=AXIS2_PLACEMENT_3D('',#1133,#963,#964);
#813=AXIS2_PLACEMENT_3D('',#1134,#965,#966);
#814=AXIS2_PLACEMENT_3D('',#1135,#967,#968);
#815=AXIS2_PLACEMENT_3D('',#1136,#969,#970);
#816=AXIS2_PLACEMENT_3D('',#1137,#971,#972);
#817=AXIS2_PLACEMENT_3D('',#1138,#973,#974);
#818=AXIS2_PLACEMENT_3D('',#1139,#975,#976);
#819=AXIS2_PLACEMENT_3D('',#1140,#977,#978);
#820=AXIS2_PLACEMENT_3D('',#1141,#979,#980);
#821=AXIS2_PLACEMENT_3D('',#1142,#981,#982);
#822=AXIS2_PLACEMENT_3D('',#1143,#983,#984);
#823=AXIS2_PLACEMENT_3D('',#1144,#985,#986);
#824=AXIS2_PLACEMENT_3D('',#1145,#987,#988);
#825=AXIS2_PLACEMENT_3D('',#1146,#989,#990);
#826=AXIS2_PLACEMENT_3D('',#1147,#991,#992);
#827=AXIS2_PLACEMENT_3D('',#1148,#993,#994);
#828=AXIS2_PLACEMENT_3D('',#1149,#995,#996);
#829=AXIS2_PLACEMENT_3D('',#1150,#997,#998);
#830=AXIS2_PLACEMENT_3D('',#1151,#999,#1000);
#831=AXIS2_PLACEMENT_3D('',#1152,#1001,#1002);
#832=AXIS2_PLACEMENT_3D('',#1153,#1003,#1004);
#833=AXIS2_PLACEMENT_3D('',#1154,#1005,#1006);
#834=AXIS2_PLACEMENT_3D('',#1155,#1007,#1008);
#835=DIRECTION('',(0.,0.,1.));
#836=DIRECTION('',(1.,0.,0.));
#837=DIRECTION('',(0.,-1.,0.));
#838=DIRECTION('',(0.,0.,-1.));
#839=DIRECTION('',(2.71050543121376E-16,0.,-1.));
#840=DIRECTION('',(-1.,0.,0.));
#841=DIRECTION('',(2.71050543121376E-16,0.,-1.));
#842=DIRECTION('',(1.,0.,2.71050543121376E-16));
#843=DIRECTION('',(0.,-1.,0.));
#844=DIRECTION('',(0.,0.,-1.));
#845=DIRECTION('',(2.71050543121376E-16,0.,-1.));
#846=DIRECTION('',(-1.,0.,0.));
#847=DIRECTION('',(2.71050543121376E-16,0.,-1.));
#848=DIRECTION('',(1.,0.,2.71050543121376E-16));
#849=DIRECTION('',(0.,0.,-1.));
#850=DIRECTION('',(-1.,0.,0.));
#851=DIRECTION('',(0.,1.,0.));
#852=DIRECTION('',(-1.,0.,0.));
#853=DIRECTION('',(0.,1.,0.));
#854=DIRECTION('',(1.,-1.81456430541507E-16,0.));
#855=DIRECTION('',(0.,1.,0.));
#856=DIRECTION('',(-1.,0.,0.));
#857=DIRECTION('',(0.,1.,0.));
#858=DIRECTION('',(-1.,0.,0.));
#859=DIRECTION('',(-2.71050543121376E-16,0.,1.));
#860=DIRECTION('',(1.,0.,2.71050543121376E-16));
#861=DIRECTION('',(0.,1.,0.));
#862=DIRECTION('',(1.,0.,2.71050543121376E-16));
#863=DIRECTION('',(0.,1.,0.));
#864=DIRECTION('',(-1.,0.,-2.71050543121376E-16));
#865=DIRECTION('',(0.,1.,0.));
#866=DIRECTION('',(1.,0.,2.71050543121376E-16));
#867=DIRECTION('',(0.,1.,0.));
#868=DIRECTION('',(1.,-1.81456430541507E-16,2.71050543121376E-16));
#869=DIRECTION('',(-1.,0.,-2.71050543121376E-16));
#870=DIRECTION('',(-2.71050543121376E-16,0.,1.));
#871=DIRECTION('',(-1.,0.,-2.71050543121376E-16));
#872=DIRECTION('',(-2.71050543121376E-16,0.,1.));
#873=DIRECTION('',(-1.,0.,-2.71050543121376E-16));
#874=DIRECTION('',(-2.71050543121376E-16,0.,1.));
#875=DIRECTION('',(-1.,0.,-2.71050543121376E-16));
#876=DIRECTION('',(-2.71050543121376E-16,0.,1.));
#877=DIRECTION('',(2.71050543121376E-16,0.,-1.));
#878=DIRECTION('',(-1.,0.,-2.71050543121376E-16));
#879=DIRECTION('',(-2.71050543121376E-16,0.,1.));
#880=DIRECTION('',(1.81456430541507E-16,1.,4.91838640511417E-32));
#881=DIRECTION('',(-1.,1.81456430541507E-16,0.));
#882=DIRECTION('',(2.71050543121376E-16,0.,-1.));
#883=DIRECTION('',(1.,-1.81456430541507E-16,0.));
#884=DIRECTION('',(1.,-1.81456430541507E-16,2.71050543121376E-16));
#885=DIRECTION('',(-1.,0.,-2.71050543121376E-16));
#886=DIRECTION('',(-2.71050543121376E-16,0.,1.));
#887=DIRECTION('',(2.71050543121376E-16,0.,-1.));
#888=DIRECTION('',(0.,1.,0.));
#889=DIRECTION('',(2.71050543121376E-16,0.,-1.));
#890=DIRECTION('',(0.,1.,0.));
#891=DIRECTION('',(-1.,0.,-2.71050543121376E-16));
#892=DIRECTION('',(-2.71050543121376E-16,0.,1.));
#893=DIRECTION('',(-1.,0.,-2.71050543121376E-16));
#894=DIRECTION('',(-2.71050543121376E-16,0.,1.));
#895=DIRECTION('',(-1.,0.,-2.71050543121376E-16));
#896=DIRECTION('',(-2.71050543121376E-16,0.,1.));
#897=DIRECTION('',(2.71050543121376E-16,0.,-1.));
#898=DIRECTION('',(-1.,0.,-2.71050543121376E-16));
#899=DIRECTION('',(-2.71050543121376E-16,0.,1.));
#900=DIRECTION('',(-1.,0.,-2.71050543121376E-16));
#901=DIRECTION('',(-2.71050543121376E-16,0.,1.));
#902=DIRECTION('',(0.,-1.,0.));
#903=DIRECTION('',(0.,0.,-1.));
#904=DIRECTION('',(-1.,0.,0.));
#905=DIRECTION('',(2.71050543121376E-16,0.,-1.));
#906=DIRECTION('',(-1.,0.,-2.71050543121376E-16));
#907=DIRECTION('',(-1.,0.,-2.71050543121376E-16));
#908=DIRECTION('',(-2.71050543121376E-16,0.,1.));
#909=DIRECTION('',(0.,1.,0.));
#910=DIRECTION('',(2.71050543121376E-16,0.,-1.));
#911=DIRECTION('',(0.,1.,0.));
#912=DIRECTION('',(2.71050543121376E-16,0.,-1.));
#913=DIRECTION('',(1.,-1.81456430541507E-16,2.71050543121376E-16));
#914=DIRECTION('',(2.71050543121376E-16,0.,-1.));
#915=DIRECTION('',(1.,0.,0.));
#916=DIRECTION('',(0.,0.,-1.));
#917=DIRECTION('',(0.,0.,-1.));
#918=DIRECTION('',(-1.,0.,0.));
#919=DIRECTION('',(0.,-2.16840434497101E-14,-1.));
#920=DIRECTION('',(0.,1.,-2.16840434497101E-14));
#921=DIRECTION('',(0.,-1.,0.));
#922=DIRECTION('',(0.,0.,-1.));
#923=DIRECTION('',(0.,1.,0.));
#924=DIRECTION('',(0.,0.,1.));
#925=DIRECTION('',(0.,1.,-2.71050543121375E-15));
#926=DIRECTION('',(0.,2.71050543121375E-15,1.));
#927=DIRECTION('',(2.71050543121376E-16,0.,-1.));
#928=DIRECTION('',(-1.,0.,-2.71050543121376E-16));
#929=DIRECTION('',(0.,0.,1.));
#930=DIRECTION('',(1.,0.,0.));
#931=DIRECTION('',(1.,-1.81456430541507E-16,0.));
#932=DIRECTION('',(1.81456430541507E-16,1.,0.));
#933=DIRECTION('',(1.,0.,0.));
#934=DIRECTION('',(0.,0.,-1.));
#935=DIRECTION('',(0.,-2.71050543121375E-15,-1.));
#936=DIRECTION('',(0.,1.,-2.71050543121375E-15));
#937=DIRECTION('',(0.,0.,-1.));
#938=DIRECTION('',(-1.,0.,0.));
#939=DIRECTION('',(1.,-1.0842021724855E-14,0.));
#940=DIRECTION('',(1.0842021724855E-14,1.,0.));
#941=DIRECTION('',(0.,-1.,0.));
#942=DIRECTION('',(0.,0.,-1.));
#943=DIRECTION('',(0.,-1.,0.));
#944=DIRECTION('',(0.,0.,-1.));
#945=DIRECTION('',(1.,0.,2.71050543121376E-16));
#946=DIRECTION('',(2.71050543121376E-16,0.,-1.));
#947=DIRECTION('',(-1.,0.,0.));
#948=DIRECTION('',(0.,0.,1.));
#949=DIRECTION('',(2.71050543121376E-16,0.,-1.));
#950=DIRECTION('',(-1.,0.,-2.71050543121376E-16));
#951=DIRECTION('',(0.,0.,1.));
#952=DIRECTION('',(1.,0.,0.));
#953=DIRECTION('',(0.,1.,0.));
#954=DIRECTION('',(0.,0.,1.));
#955=DIRECTION('',(-2.71050543121375E-15,1.,0.));
#956=DIRECTION('',(-1.,-2.71050543121375E-15,0.));
#957=DIRECTION('',(0.,-2.71050543121375E-15,-1.));
#958=DIRECTION('',(0.,1.,-2.71050543121375E-15));
#959=DIRECTION('',(0.,0.,-1.));
#960=DIRECTION('',(-1.,0.,0.));
#961=DIRECTION('',(5.42101086242751E-15,1.,0.));
#962=DIRECTION('',(-1.,5.42101086242751E-15,0.));
#963=DIRECTION('',(1.,0.,0.));
#964=DIRECTION('',(0.,0.,-1.));
#965=DIRECTION('',(1.,0.,1.0842021724855E-14));
#966=DIRECTION('',(1.0842021724855E-14,0.,-1.));
#967=DIRECTION('',(1.,0.,2.71050543121376E-16));
#968=DIRECTION('',(2.71050543121376E-16,0.,-1.));
#969=DIRECTION('',(-1.,0.,0.));
#970=DIRECTION('',(0.,0.,1.));
#971=DIRECTION('',(0.,-1.,0.));
#972=DIRECTION('',(0.,0.,-1.));
#973=DIRECTION('',(0.,-1.,0.));
#974=DIRECTION('',(0.,0.,-1.));
#975=DIRECTION('',(-2.71050543121376E-16,0.,1.));
#976=DIRECTION('',(1.,0.,2.71050543121376E-16));
#977=DIRECTION('',(0.,0.,1.));
#978=DIRECTION('',(1.,0.,0.));
#979=DIRECTION('',(-1.,0.,0.));
#980=DIRECTION('',(0.,0.,1.));
#981=DIRECTION('',(-1.,0.,0.));
#982=DIRECTION('',(0.,0.,1.));
#983=DIRECTION('',(0.,0.,-1.));
#984=DIRECTION('',(-1.,0.,0.));
#985=DIRECTION('',(0.,0.,-1.));
#986=DIRECTION('',(-1.,0.,0.));
#987=DIRECTION('',(0.,1.,0.));
#988=DIRECTION('',(0.,0.,1.));
#989=DIRECTION('',(0.,1.,5.42101086242751E-15));
#990=DIRECTION('',(0.,-5.42101086242751E-15,1.));
#991=DIRECTION('',(2.71050543121376E-16,0.,-1.));
#992=DIRECTION('',(-1.,0.,-2.71050543121376E-16));
#993=DIRECTION('',(0.,0.,1.));
#994=DIRECTION('',(1.,0.,0.));
#995=DIRECTION('',(0.,-1.,0.));
#996=DIRECTION('',(0.,0.,-1.));
#997=DIRECTION('',(0.,-1.,0.));
#998=DIRECTION('',(0.,0.,-1.));
#999=DIRECTION('',(-1.,0.,0.));
#1000=DIRECTION('',(0.,0.,1.));
#1001=DIRECTION('',(-1.,0.,0.));
#1002=DIRECTION('',(0.,0.,1.));
#1003=DIRECTION('',(1.,0.,0.));
#1004=DIRECTION('',(0.,0.,-1.));
#1005=DIRECTION('',(-1.,0.,-2.71050543121376E-16));
#1006=DIRECTION('',(-2.71050543121376E-16,0.,1.));
#1007=DIRECTION('',(1.,0.,0.));
#1008=DIRECTION('',(0.,0.,-1.));
#1009=CARTESIAN_POINT('',(0.,0.,0.));
#1010=CARTESIAN_POINT('',(0.,-0.5,0.));
#1011=CARTESIAN_POINT('',(0.999999999999999,-0.5,1.25));
#1012=CARTESIAN_POINT('',(0.999999999999999,-0.5,1.23));
#1013=CARTESIAN_POINT('',(1.,-0.5,-1.23));
#1014=CARTESIAN_POINT('',(-1.,-0.5,1.23));
#1015=CARTESIAN_POINT('',(-1.,-0.5,1.23));
#1016=CARTESIAN_POINT('',(-1.,-0.5,1.25));
#1017=CARTESIAN_POINT('',(-1.,-0.5,-1.23));
#1018=CARTESIAN_POINT('',(1.,-0.5,-1.23));
#1019=CARTESIAN_POINT('',(0.,0.5,0.));
#1020=CARTESIAN_POINT('',(-1.5775,0.5,1.25));
#1021=CARTESIAN_POINT('',(-1.5775,0.5,-1.23));
#1022=CARTESIAN_POINT('',(-1.5775,0.5,1.23));
#1023=CARTESIAN_POINT('',(0.,0.5,1.23));
#1024=CARTESIAN_POINT('',(1.5775,0.5,1.23));
#1025=CARTESIAN_POINT('',(1.5775,0.5,4.27582231773971E-16));
#1026=CARTESIAN_POINT('',(1.5775,0.5,-1.23));
#1027=CARTESIAN_POINT('',(3.33392168039293E-16,0.5,-1.23));
#1028=CARTESIAN_POINT('',(1.6,-0.5,1.25));
#1029=CARTESIAN_POINT('',(-1.,-0.5,1.25));
#1030=CARTESIAN_POINT('',(-1.,-0.48,1.25));
#1031=CARTESIAN_POINT('',(-1.,-0.4775,1.25));
#1032=CARTESIAN_POINT('',(0.999999999999999,-0.48,1.25));
#1033=CARTESIAN_POINT('',(0.999999999999999,-0.48,1.25));
#1034=CARTESIAN_POINT('',(0.999999999999999,-0.5,1.25));
#1035=CARTESIAN_POINT('',(0.999999999999999,-0.4775,1.25));
#1036=CARTESIAN_POINT('',(1.6,-0.4775,1.25));
#1037=CARTESIAN_POINT('',(1.5775,-0.4775,1.25));
#1038=CARTESIAN_POINT('',(1.5775,-0.5,1.25));
#1039=CARTESIAN_POINT('',(1.5775,0.48,1.25));
#1040=CARTESIAN_POINT('',(1.6,0.48,1.25));
#1041=CARTESIAN_POINT('',(-1.5775,0.48,1.25));
#1042=CARTESIAN_POINT('',(-1.5775,-0.4975,1.25));
#1043=CARTESIAN_POINT('',(-1.5775,-0.4775,1.25));
#1044=CARTESIAN_POINT('',(-1.,-0.4775,1.25));
#1045=CARTESIAN_POINT('',(-1.6,-0.5,-1.25));
#1046=CARTESIAN_POINT('',(1.,-0.5,-1.25));
#1047=CARTESIAN_POINT('',(1.,-0.48,-1.25));
#1048=CARTESIAN_POINT('',(1.,-0.4775,-1.25));
#1049=CARTESIAN_POINT('',(-1.,-0.48,-1.25));
#1050=CARTESIAN_POINT('',(-1.,-0.48,-1.25));
#1051=CARTESIAN_POINT('',(-1.,-0.5,-1.25));
#1052=CARTESIAN_POINT('',(-1.,-0.4775,-1.25));
#1053=CARTESIAN_POINT('',(-1.5975,-0.4775,-1.25));
#1054=CARTESIAN_POINT('',(-1.5775,-0.4775,-1.25));
#1055=CARTESIAN_POINT('',(-1.5775,0.5,-1.25));
#1056=CARTESIAN_POINT('',(-1.5775,0.48,-1.25));
#1057=CARTESIAN_POINT('',(-1.6,0.48,-1.25));
#1058=CARTESIAN_POINT('',(1.5775,0.48,-1.25));
#1059=CARTESIAN_POINT('',(1.5775,-0.5,-1.25));
#1060=CARTESIAN_POINT('',(1.5775,-0.4775,-1.25));
#1061=CARTESIAN_POINT('',(-1.6,-0.4775,-1.25));
#1062=CARTESIAN_POINT('',(0.999999999999999,-0.5,1.25));
#1063=CARTESIAN_POINT('',(0.999999999999999,-0.48,1.23));
#1064=CARTESIAN_POINT('',(1.,-0.48,-1.23));
#1065=CARTESIAN_POINT('',(1.,-0.4775,-1.23));
#1066=CARTESIAN_POINT('',(1.,-0.4975,-1.23));
#1067=CARTESIAN_POINT('',(0.999999999999999,-0.4975,1.25));
#1068=CARTESIAN_POINT('',(0.999999999999999,-0.4975,1.23));
#1069=CARTESIAN_POINT('',(0.999999999999999,-0.4775,1.23));
#1070=CARTESIAN_POINT('',(0.999999999999999,-0.4975,1.25));
#1071=CARTESIAN_POINT('',(1.5775,-0.4975,1.25));
#1072=CARTESIAN_POINT('',(1.5775,-0.4975,-1.23));
#1073=CARTESIAN_POINT('',(1.5775,-0.4975,1.23));
#1074=CARTESIAN_POINT('',(0.999999999999999,-0.4975,1.23));
#1075=CARTESIAN_POINT('',(1.,-0.4975,-1.23));
#1076=CARTESIAN_POINT('',(1.5975,-0.4975,1.25));
#1077=CARTESIAN_POINT('',(1.5975,0.48,1.25));
#1078=CARTESIAN_POINT('',(1.5975,0.48,-1.23));
#1079=CARTESIAN_POINT('',(1.5975,0.48,1.23));
#1080=CARTESIAN_POINT('',(1.5975,-0.4975,1.23));
#1081=CARTESIAN_POINT('',(1.5975,-0.4775,1.23));
#1082=CARTESIAN_POINT('',(1.5975,-0.4775,1.25));
#1083=CARTESIAN_POINT('',(1.5975,-0.4775,-1.23));
#1084=CARTESIAN_POINT('',(1.5975,-0.4975,-1.23));
#1085=CARTESIAN_POINT('',(-1.,-0.5,1.25));
#1086=CARTESIAN_POINT('',(-1.,-0.48,1.23));
#1087=CARTESIAN_POINT('',(-1.,-0.4775,1.23));
#1088=CARTESIAN_POINT('',(-1.,-0.4975,1.23));
#1089=CARTESIAN_POINT('',(-1.,-0.4975,1.25));
#1090=CARTESIAN_POINT('',(-1.,-0.4975,-1.23));
#1091=CARTESIAN_POINT('',(-1.,-0.4775,-1.23));
#1092=CARTESIAN_POINT('',(-1.,-0.48,-1.23));
#1093=CARTESIAN_POINT('',(-1.,-0.4975,1.25));
#1094=CARTESIAN_POINT('',(-1.5975,-0.4975,1.23));
#1095=CARTESIAN_POINT('',(-1.5775,-0.4975,1.23));
#1096=CARTESIAN_POINT('',(-1.5775,-0.4975,1.25));
#1097=CARTESIAN_POINT('',(-1.5775,-0.4975,-1.23));
#1098=CARTESIAN_POINT('',(-1.,-0.4975,-1.23));
#1099=CARTESIAN_POINT('',(-1.5975,-0.4975,1.25));
#1100=CARTESIAN_POINT('',(-1.5975,-0.4975,-1.23));
#1101=CARTESIAN_POINT('',(-1.5975,0.48,-1.23));
#1102=CARTESIAN_POINT('',(-1.5975,-0.4775,-1.23));
#1103=CARTESIAN_POINT('',(-1.5975,-0.4775,1.25));
#1104=CARTESIAN_POINT('',(-1.5975,-0.4775,1.23));
#1105=CARTESIAN_POINT('',(-1.5975,0.5,1.23));
#1106=CARTESIAN_POINT('',(-1.5975,0.48,1.23));
#1107=CARTESIAN_POINT('',(-1.5975,0.48,-1.25));
#1108=CARTESIAN_POINT('',(1.,-0.4775,-1.23));
#1109=CARTESIAN_POINT('',(1.5775,-0.4775,-1.23));
#1110=CARTESIAN_POINT('',(1.5775,-0.4775,-1.23));
#1111=CARTESIAN_POINT('',(1.5775,-0.4775,-1.23));
#1112=CARTESIAN_POINT('',(1.5775,-0.4775,-1.23));
#1113=CARTESIAN_POINT('',(1.5775,-0.4975,-1.23));
#1114=CARTESIAN_POINT('',(1.5775,0.48,-1.23));
#1115=CARTESIAN_POINT('',(1.5775,-0.4775,1.25));
#1116=CARTESIAN_POINT('',(1.5775,-0.4775,1.23));
#1117=CARTESIAN_POINT('',(1.6,-0.4775,1.23));
#1118=CARTESIAN_POINT('',(1.5775,-0.4775,1.23));
#1119=CARTESIAN_POINT('',(1.5775,0.48,-1.23));
#1120=CARTESIAN_POINT('',(1.5775,0.48,-1.23));
#1121=CARTESIAN_POINT('',(1.5775,0.48,-1.23));
#1122=CARTESIAN_POINT('',(1.5775,-0.4775,1.23));
#1123=CARTESIAN_POINT('',(1.5775,-0.4775,1.23));
#1124=CARTESIAN_POINT('',(-1.6,0.48,-1.23));
#1125=CARTESIAN_POINT('',(-1.5775,0.48,-1.23));
#1126=CARTESIAN_POINT('',(1.5775,0.48,4.27582231773971E-16));
#1127=CARTESIAN_POINT('',(1.5775,0.48,1.23));
#1128=CARTESIAN_POINT('',(1.5775,-0.5,1.23));
#1129=CARTESIAN_POINT('',(1.5775,0.48,1.23));
#1130=CARTESIAN_POINT('',(-1.5775,0.48,-1.23));
#1131=CARTESIAN_POINT('',(-1.5775,0.48,-1.23));
#1132=CARTESIAN_POINT('',(-1.5775,0.48,-1.23));
#1133=CARTESIAN_POINT('',(1.5775,0.48,1.23));
#1134=CARTESIAN_POINT('',(1.5775,0.48,1.23));
#1135=CARTESIAN_POINT('',(-1.6,-0.4775,-1.23));
#1136=CARTESIAN_POINT('',(-1.5775,-0.4775,-1.23));
#1137=CARTESIAN_POINT('',(-1.5775,-0.5,-1.23));
#1138=CARTESIAN_POINT('',(-1.5775,-0.4775,-1.23));
#1139=CARTESIAN_POINT('',(-1.5775,0.48,1.25));
#1140=CARTESIAN_POINT('',(-1.5775,0.48,1.23));
#1141=CARTESIAN_POINT('',(1.6,0.48,1.23));
#1142=CARTESIAN_POINT('',(-1.5775,0.48,1.23));
#1143=CARTESIAN_POINT('',(-1.5775,-0.4775,-1.23));
#1144=CARTESIAN_POINT('',(-1.5775,-0.4775,-1.23));
#1145=CARTESIAN_POINT('',(-1.5775,0.48,1.23));
#1146=CARTESIAN_POINT('',(-1.5775,0.48,1.23));
#1147=CARTESIAN_POINT('',(-1.5775,-0.4775,1.25));
#1148=CARTESIAN_POINT('',(-1.5775,-0.4775,1.23));
#1149=CARTESIAN_POINT('',(-1.5775,-0.4975,1.23));
#1150=CARTESIAN_POINT('',(-1.5775,-0.4775,1.23));
#1151=CARTESIAN_POINT('',(-1.5775,-0.4775,1.23));
#1152=CARTESIAN_POINT('',(-1.5775,-0.4775,1.23));
#1153=CARTESIAN_POINT('',(-1.,-0.4775,1.23));
#1154=CARTESIAN_POINT('',(3.33392168039293E-16,-0.48,-1.23));
#1155=CARTESIAN_POINT('',(0.,-0.48,1.23));
#1156=MECHANICAL_DESIGN_GEOMETRIC_PRESENTATION_REPRESENTATION('',(#490,
#491,#492,#493,#494,#495,#496,#497,#498,#499,#500,#501,#502,#503,#504,#505,
#506,#507,#508,#509,#510,#511,#512,#513,#514,#515,#516,#517,#518,#519,#520,
#521,#522,#523),#1157);
#1157=(
GEOMETRIC_REPRESENTATION_CONTEXT(3)
GLOBAL_UNCERTAINTY_ASSIGNED_CONTEXT((#1158))
GLOBAL_UNIT_ASSIGNED_CONTEXT((#1161,#1160,#1159))
REPRESENTATION_CONTEXT('WE-PMCI_322510','TOP_LEVEL_ASSEMBLY_PART')
);
#1158=UNCERTAINTY_MEASURE_WITH_UNIT(LENGTH_MEASURE(0.005),#1161,
'DISTANCE_ACCURACY_VALUE','Maximum Tolerance applied to model');
#1159=(
NAMED_UNIT(*)
SI_UNIT($,.STERADIAN.)
SOLID_ANGLE_UNIT()
);
#1160=(
NAMED_UNIT(*)
PLANE_ANGLE_UNIT()
SI_UNIT($,.RADIAN.)
);
#1161=(
LENGTH_UNIT()
NAMED_UNIT(*)
SI_UNIT(.MILLI.,.METRE.)
);
#1162=PRODUCT_DEFINITION_SHAPE('','',#1163);
#1163=PRODUCT_DEFINITION('','',#1165,#1164);
#1164=PRODUCT_DEFINITION_CONTEXT('',#1171,'design');
#1165=PRODUCT_DEFINITION_FORMATION_WITH_SPECIFIED_SOURCE('','',#1167,
 .NOT_KNOWN.);
#1166=PRODUCT_RELATED_PRODUCT_CATEGORY('','',(#1167));
#1167=PRODUCT('WE-PMCI_322510','WE-PMCI_322510','WE-PMCI_322510',(#1169));
#1168=PRODUCT_CATEGORY('','');
#1169=PRODUCT_CONTEXT('',#1171,'mechanical');
#1170=APPLICATION_PROTOCOL_DEFINITION('international standard',
'automotive_design',2010,#1171);
#1171=APPLICATION_CONTEXT(
'core data for automotive mechanical design processes');
ENDSEC;
END-ISO-10303-21;
